<svg width="18" height="21" viewBox="0 0 18 21" fill="none" xmlns="http://www.w3.org/2000/svg">
<path d="M8.97192 1.35714C9.63496 1.35714 10.2708 1.63308 10.7397 2.12424C11.2085 2.61541 11.4719 3.28158 11.4719 3.97619V6.59524H6.47192V3.97619C6.47192 3.28158 6.73531 2.61541 7.20415 2.12424C7.67299 1.63308 8.30887 1.35714 8.97192 1.35714ZM12.7219 6.59524V3.97619C12.7219 2.93427 12.3268 1.93502 11.6236 1.19827C10.9203 0.461521 9.96648 0.0476189 8.97192 0.0476189C7.97735 0.0476189 7.02353 0.461521 6.32026 1.19827C5.617 1.93502 5.22192 2.93427 5.22192 3.97619V6.59524H3.17191C2.72301 6.59534 2.28903 6.76417 1.94886 7.07104C1.60869 7.3779 1.3849 7.80244 1.31816 8.2675L0.0344147 17.2417C-0.0321006 17.7073 -0.00196088 18.1825 0.122778 18.6348C0.247516 19.0872 0.463919 19.506 0.757222 19.8627C1.05053 20.2195 1.41383 20.5057 1.82235 20.702C2.23087 20.8983 2.67499 20.9999 3.12441 21H14.8182C15.2677 21.0001 15.712 20.8986 16.1206 20.7024C16.5293 20.5062 16.8928 20.22 17.1862 19.8632C17.4796 19.5065 17.6962 19.0876 17.821 18.6352C17.9458 18.1827 17.9759 17.7074 17.9094 17.2417L16.6244 8.2675C16.5577 7.80266 16.3341 7.3783 15.9942 7.07146C15.6543 6.76462 15.2206 6.59565 14.7719 6.59524H12.7219ZM11.4719 7.90476V9.86905C11.4719 10.0427 11.5378 10.2092 11.655 10.332C11.7722 10.4548 11.9312 10.5238 12.0969 10.5238C12.2627 10.5238 12.4216 10.4548 12.5389 10.332C12.6561 10.2092 12.7219 10.0427 12.7219 9.86905V7.90476H14.7707C14.9203 7.90492 15.0649 7.9613 15.1782 8.06367C15.2915 8.16604 15.366 8.30759 15.3882 8.46262L16.6732 17.4342C16.7133 17.7136 16.6953 17.9989 16.6206 18.2704C16.5459 18.5419 16.4161 18.7934 16.2401 19.0076C16.0641 19.2218 15.8461 19.3937 15.6009 19.5115C15.3557 19.6294 15.0892 19.6904 14.8194 19.6905H3.12441C2.85466 19.6904 2.58809 19.6294 2.34291 19.5115C2.09773 19.3937 1.8797 19.2218 1.70373 19.0076C1.52775 18.7934 1.39797 18.5419 1.32323 18.2704C1.24849 17.9989 1.23056 17.7136 1.27066 17.4342L2.55567 8.46262C2.57778 8.30782 2.65209 8.16643 2.76515 8.06409C2.8782 7.96176 3.0225 7.90523 3.17191 7.90476H5.22192V9.86905C5.22192 10.0427 5.28776 10.2092 5.40497 10.332C5.52218 10.4548 5.68115 10.5238 5.84692 10.5238C6.01268 10.5238 6.17165 10.4548 6.28886 10.332C6.40607 10.2092 6.47192 10.0427 6.47192 9.86905V7.90476H11.4719Z" fill="black"/>
</svg>
